<svg xmlns="http://www.w3.org/2000/svg" xmlns:xlink="http://www.w3.org/1999/xlink" width="153.175" height="118.169" viewBox="0 0 153.175 118.169">
  <defs>
    <filter id="Path_35" x="0" y="0" width="91.32" height="118.169" filterUnits="userSpaceOnUse">
      <feOffset dx="3" dy="3" input="SourceAlpha"/>
      <feGaussianBlur stdDeviation="5" result="blur"/>
      <feFlood flood-opacity="0.302"/>
      <feComposite operator="in" in2="blur"/>
      <feComposite in="SourceGraphic"/>
    </filter>
    <filter id="Path_36" x="62.289" y="17.698" width="90.886" height="100.275" filterUnits="userSpaceOnUse">
      <feOffset dx="3" dy="3" input="SourceAlpha"/>
      <feGaussianBlur stdDeviation="5" result="blur-2"/>
      <feFlood flood-opacity="0.302"/>
      <feComposite operator="in" in2="blur-2"/>
      <feComposite in="SourceGraphic"/>
    </filter>
  </defs>
  <g id="Group_6" data-name="Group 6" transform="translate(-138.842 -142.398)">
    <g transform="matrix(1, 0, 0, 1, 138.84, 142.4)" filter="url(#Path_35)">
      <path id="Path_35-2" data-name="Path 35" d="M2141.477,879.4l8.931,8.23-33.971,32.921s61.258,12.038,31.635,34.351-46.68,8.356-46.68,8.356-7.782-3.831-6.381-10.161,9.374-9.626,14.14-4.86,2.487,6.01,1.865,10.258,28.947,2.171,35.871-11.294-31.206-22.379-31.206-22.379-15.167-3.561-15.179-3.219S2141.477,879.4,2141.477,879.4Z" transform="translate(-2082.84 -867.4)" fill="#242424"/>
    </g>
    <g transform="matrix(1, 0, 0, 1, 138.84, 142.4)" filter="url(#Path_36)">
      <path id="Path_36-2" data-name="Path 36" d="M2384.216,961.96H2374.1s4.607-27.316,27.2-24.69,26.914,14.709,26.563,31.87,7.127,35.883,7.127,35.883l-7.127,2.291-9.28-7.139s-12.783,6.613-20.84,7.139-23.64-2.624-23.64-18.209,12.986-18.519,23.64-19.111,20.84,9.3,20.84,9.3,2.3-32.193-15.937-33.8S2384.216,961.96,2384.216,961.96Z" transform="translate(-2299.81 -907.39)" fill="#18436d"/>
    </g>
    <g id="Group_4" data-name="Group 4" transform="translate(217.507 210.69)">
      <path id="Path_37" data-name="Path 37" d="M.533,0S2.348,2.167,9.669,2.011,19.754,0,19.754,0s.583,7.58-1.1,13.205-8.98,9.279-8.98,9.279A13.981,13.981,0,0,1,.975,13.205,29.7,29.7,0,0,1,.533,0Z" transform="translate(0 3.788) rotate(-11)" fill="#fff"/>
      <path id="Path_39" data-name="Path 39" d="M0,.677A3.44,3.44,0,0,1,3.43.3" transform="matrix(0.996, -0.087, 0.087, 0.996, 5.439, 8.911)" fill="none" stroke="#18436d" stroke-width="1"/>
      <path id="Path_40" data-name="Path 40" d="M0,.677A3.44,3.44,0,0,1,3.43.3" transform="matrix(0.995, 0.105, -0.105, 0.995, 13.886, 7.597)" fill="none" stroke="#18436d" stroke-width="1"/>
      <path id="Path_41" data-name="Path 41" d="M0,1.851A4.688,4.688,0,0,1,6.346.813" transform="translate(16.049 18.801) rotate(180)" fill="none" stroke="#18436d" stroke-width="1"/>
    </g>
    <g id="Group_5" data-name="Group 5" transform="matrix(0.914, 0.407, -0.407, 0.914, 238.579, 210.422)">
      <path id="Path_37-2" data-name="Path 37" d="M.533,0S2.348,2.167,9.669,2.011,19.754,0,19.754,0s.583,7.58-1.1,13.205-8.98,9.279-8.98,9.279A13.981,13.981,0,0,1,.975,13.205,29.7,29.7,0,0,1,.533,0Z" transform="translate(0 3.788) rotate(-11)" fill="#fff" stroke="#08f" stroke-width="0.2"/>
      <path id="Path_39-2" data-name="Path 39" d="M0,.677A3.44,3.44,0,0,1,3.43.3" transform="matrix(-0.996, 0.087, -0.087, -0.996, 8.915, 9.287)" fill="none" stroke="#18436d" stroke-width="1"/>
      <path id="Path_40-2" data-name="Path 40" d="M0,.677A3.44,3.44,0,0,1,3.43.3" transform="matrix(-0.995, -0.105, 0.105, -0.995, 17.226, 8.629)" fill="none" stroke="#18436d" stroke-width="1"/>
      <path id="Path_41-2" data-name="Path 41" d="M0,1.851A4.688,4.688,0,0,1,6.346.813" transform="translate(9.702 16.951)" fill="none" stroke="#18436d" stroke-width="1"/>
    </g>
  </g>
</svg>
