<svg xmlns="http://www.w3.org/2000/svg" width="62.662" height="62.784" viewBox="0 0 62.662 62.784">
  <path id="phone" d="M62.769,47.5v9.15a6.1,6.1,0,0,1-6.649,6.1A60.358,60.358,0,0,1,29.8,53.391a59.473,59.473,0,0,1-18.3-18.3A60.358,60.358,0,0,1,2.137,8.649,6.1,6.1,0,0,1,8.206,2h9.15a6.1,6.1,0,0,1,6.1,5.246,39.161,39.161,0,0,0,2.135,8.57,6.1,6.1,0,0,1-1.372,6.435l-3.873,3.873a48.8,48.8,0,0,0,18.3,18.3l3.873-3.873a6.1,6.1,0,0,1,6.435-1.372,39.161,39.161,0,0,0,8.57,2.135A6.1,6.1,0,0,1,62.769,47.5Z" transform="translate(-1.109 -1)" stroke="#000" stroke-linecap="round" stroke-linejoin="round" stroke-width="2"/>
</svg>
